<svg version="1.1" id="Layer_1" xmlns="http://www.w3.org/2000/svg" xmlns:xlink="http://www.w3.org/1999/xlink" x="0px" y="0px"
	 width="100%" viewBox="0 0 1696 1040" enable-background="new 0 0 1696 1040" xml:space="preserve">
<path fill="#FFFFFF" opacity="1.000000" stroke="none" 
	d="
M1697.000000,976.000000 
	C1697.000000,997.665039 1697.000000,1019.330078 1697.000000,1040.996338 
	C1131.710449,1040.997559 566.420898,1040.997559 1.065655,1040.997559 
	C1.065655,694.402954 1.065655,347.805908 1.065655,1.104429 
	C566.221558,1.104429 1131.443115,1.104429 1697.000000,1.104429 
	C1697.000000,322.030853 1697.000000,643.061829 1696.639648,964.352539 
	C1693.220825,946.910400 1690.217896,929.198730 1687.094116,911.508362 
	C1675.984741,848.593079 1664.864746,785.679565 1653.690552,722.775757 
	C1641.526855,654.302063 1629.267700,585.845337 1617.106934,517.371155 
	C1604.946167,448.897186 1592.889893,380.404633 1580.725220,311.931335 
	C1565.883301,228.387756 1550.913818,144.866776 1536.123657,61.314049 
	C1528.885498,20.425089 1491.203857,-2.549972 1451.684937,10.350905 
	C1311.189575,56.215275 1170.728516,102.184761 1030.259033,148.128372 
	C1029.203491,148.473633 1028.211426,149.012970 1027.189819,149.461670 
	C1054.590332,152.492279 1081.836548,155.163879 1108.514526,160.615707 
	C1189.005127,177.064590 1261.902954,210.711258 1327.126587,260.720520 
	C1377.342041,299.222412 1420.213501,344.420166 1451.687866,399.707275 
	C1464.421387,422.074982 1474.580566,445.526611 1478.365234,471.289062 
	C1479.740845,480.653595 1479.785034,480.749115 1471.239502,485.269836 
	C1434.294556,504.814331 1405.879639,532.616821 1388.726807,571.089722 
	C1384.321533,580.970642 1381.069214,591.365601 1377.287231,601.524414 
	C1377.729614,601.842041 1378.171997,602.159668 1378.614258,602.477295 
	C1384.220215,601.111328 1389.919434,600.044556 1395.415894,598.327881 
	C1419.688843,590.746521 1443.849854,582.802673 1468.162964,575.354614 
	C1479.533691,571.871277 1491.248169,569.758545 1503.042847,573.430359 
	C1514.097778,576.871765 1522.048706,584.807678 1529.797363,592.899170 
	C1547.045654,610.911072 1561.192627,632.097656 1584.117920,645.242859 
	C1580.220215,647.054993 1577.002441,648.730347 1573.653198,650.079407 
	C1551.852417,658.859924 1528.689209,661.862427 1505.807861,666.099121 
	C1503.216553,666.578857 1500.272339,667.785706 1498.491211,669.623840 
	C1457.661133,711.762756 1412.738892,749.099487 1365.099854,783.205688 
	C1320.857910,814.879700 1274.397705,842.701782 1223.536133,862.606445 
	C1156.750000,888.743225 1087.792114,905.257996 1016.020935,909.226196 
	C1008.944092,909.617554 1001.866516,909.998108 993.954468,910.429138 
	C995.147949,911.270996 995.498230,911.706604 995.916321,911.786377 
	C1026.470093,917.616211 1057.043823,923.343384 1087.585449,929.235718 
	C1180.036621,947.072327 1272.471802,964.990906 1364.920288,982.841736 
	C1449.364624,999.146973 1533.832153,1015.333740 1618.260864,1031.719849 
	C1651.764282,1038.222290 1682.215332,1021.534851 1693.111572,990.144653 
	C1694.711670,985.535278 1695.718628,980.720032 1697.000000,976.000000 
M9.385983,472.499878 
	C9.383877,535.661682 9.266754,598.823914 9.525469,661.984619 
	C9.557747,669.865051 10.505165,678.077332 12.871670,685.552368 
	C21.536612,712.922180 45.212883,729.191650 75.267899,729.204712 
	C163.430038,729.243042 251.592209,729.218933 339.754364,729.219299 
	C341.699982,729.219299 343.645630,729.219299 345.984589,729.219299 
	C345.984589,731.764099 345.984558,733.733948 345.984558,735.703857 
	C345.984619,814.366516 345.982727,893.029114 345.992432,971.691772 
	C345.992767,974.523621 346.001831,977.362366 346.185608,980.186279 
	C348.275299,1012.299133 374.330536,1037.750610 406.464203,1039.197388 
	C424.595490,1040.013672 439.632355,1033.002930 453.595520,1021.985779 
	C525.525879,965.231750 597.620361,908.685608 669.760437,852.198303 
	C671.680847,850.694580 674.907166,849.770874 677.298889,850.120422 
	C710.957642,855.040771 744.773193,858.137146 778.778259,858.673279 
	C817.166504,859.278625 855.342346,856.559570 893.203857,849.979675 
	C942.149658,841.473511 989.085876,826.614014 1034.040161,805.467957 
	C1076.126221,785.671021 1114.975952,760.704956 1151.375854,731.866272 
	C1161.140625,724.129944 1170.532593,715.922974 1180.882690,707.274414 
	C1111.594360,686.838623 1045.614258,660.901245 981.634949,629.965820 
	C914.429382,597.470398 810.433228,534.430420 799.713257,519.741516 
	C935.634460,588.658875 1078.035034,634.745361 1231.287109,642.692566 
	C1159.510986,622.191895 1091.482666,592.779663 1026.092896,557.047424 
	C970.936279,526.907043 850.458679,443.342133 842.952148,429.741699 
	C854.929504,436.744263 866.473450,443.613220 878.128845,450.287598 
	C937.297485,484.170135 998.709656,513.230347 1063.166260,535.618652 
	C1127.243896,557.875427 1192.855713,573.153137 1260.653809,578.356934 
	C1264.753906,578.671692 1265.943115,577.334229 1267.146240,573.811584 
	C1274.162598,553.268555 1279.060059,532.257996 1281.783813,510.735291 
	C1284.473999,489.478760 1284.904541,468.162842 1281.688599,446.968933 
	C1276.072754,409.957092 1259.891846,377.307190 1238.546143,347.098663 
	C1209.461426,305.937897 1171.895020,273.800018 1129.710327,246.801819 
	C1077.917725,213.654465 1021.917236,189.797943 963.201599,172.060318 
	C961.051208,171.410690 958.288269,171.736252 956.087524,172.454803 
	C754.428711,238.299622 552.799744,304.236023 351.140289,370.078979 
	C347.587280,371.239044 343.689880,371.859283 339.952209,371.863434 
	C251.456863,371.961487 162.961334,371.897125 74.465904,371.961761 
	C38.831532,371.987793 11.926659,396.841492 9.814034,432.021545 
	C9.026113,445.142242 9.492031,458.338196 9.385983,472.499878 
z"/>
<path fill="#0066FF" opacity="1.000000" stroke="none" 
	d="
M1697.000000,975.541931 
	C1695.718628,980.720032 1694.711670,985.535278 1693.111572,990.144653 
	C1682.215332,1021.534851 1651.764282,1038.222290 1618.260864,1031.719849 
	C1533.832153,1015.333740 1449.364624,999.146973 1364.920288,982.841736 
	C1272.471802,964.990906 1180.036621,947.072327 1087.585449,929.235718 
	C1057.043823,923.343384 1026.470093,917.616211 995.916321,911.786377 
	C995.498230,911.706604 995.147949,911.270996 993.954468,910.429138 
	C1001.866516,909.998108 1008.944092,909.617554 1016.020935,909.226196 
	C1087.792114,905.257996 1156.750000,888.743225 1223.536133,862.606445 
	C1274.397705,842.701782 1320.857910,814.879700 1365.099854,783.205688 
	C1412.738892,749.099487 1457.661133,711.762756 1498.491211,669.623840 
	C1500.272339,667.785706 1503.216553,666.578857 1505.807861,666.099121 
	C1528.689209,661.862427 1551.852417,658.859924 1573.653198,650.079407 
	C1577.002441,648.730347 1580.220215,647.054993 1584.117920,645.242859 
	C1561.192627,632.097656 1547.045654,610.911072 1529.797363,592.899170 
	C1522.048706,584.807678 1514.097778,576.871765 1503.042847,573.430359 
	C1491.248169,569.758545 1479.533691,571.871277 1468.162964,575.354614 
	C1443.849854,582.802673 1419.688843,590.746521 1395.415894,598.327881 
	C1389.919434,600.044556 1384.220215,601.111328 1378.614258,602.477295 
	C1378.171997,602.159668 1377.729614,601.842041 1377.287231,601.524414 
	C1381.069214,591.365601 1384.321533,580.970642 1388.726807,571.089722 
	C1405.879639,532.616821 1434.294556,504.814331 1471.239502,485.269836 
	C1479.785034,480.749115 1479.740845,480.653595 1478.365234,471.289062 
	C1474.580566,445.526611 1464.421387,422.074982 1451.687866,399.707275 
	C1420.213501,344.420166 1377.342041,299.222412 1327.126587,260.720520 
	C1261.902954,210.711258 1189.005127,177.064590 1108.514526,160.615707 
	C1081.836548,155.163879 1054.590332,152.492279 1027.189819,149.461670 
	C1028.211426,149.012970 1029.203491,148.473633 1030.259033,148.128372 
	C1170.728516,102.184761 1311.189575,56.215275 1451.684937,10.350905 
	C1491.203857,-2.549972 1528.885498,20.425089 1536.123657,61.314049 
	C1550.913818,144.866776 1565.883301,228.387756 1580.725220,311.931335 
	C1592.889893,380.404633 1604.946167,448.897186 1617.106934,517.371155 
	C1629.267700,585.845337 1641.526855,654.302063 1653.690552,722.775757 
	C1664.864746,785.679565 1675.984741,848.593079 1687.094116,911.508362 
	C1690.217896,929.198730 1693.220825,946.910400 1696.639648,964.806152 
	C1697.000000,968.361267 1697.000000,971.722595 1697.000000,975.541931 
z"/>
<path fill="#0066FF" opacity="1.000000" stroke="none" 
	d="
M9.386103,471.999878 
	C9.492031,458.338196 9.026113,445.142242 9.814034,432.021545 
	C11.926659,396.841492 38.831532,371.987793 74.465904,371.961761 
	C162.961334,371.897125 251.456863,371.961487 339.952209,371.863434 
	C343.689880,371.859283 347.587280,371.239044 351.140289,370.078979 
	C552.799744,304.236023 754.428711,238.299622 956.087524,172.454803 
	C958.288269,171.736252 961.051208,171.410690 963.201599,172.060318 
	C1021.917236,189.797943 1077.917725,213.654465 1129.710327,246.801819 
	C1171.895020,273.800018 1209.461426,305.937897 1238.546143,347.098663 
	C1259.891846,377.307190 1276.072754,409.957092 1281.688599,446.968933 
	C1284.904541,468.162842 1284.473999,489.478760 1281.783813,510.735291 
	C1279.060059,532.257996 1274.162598,553.268555 1267.146240,573.811584 
	C1265.943115,577.334229 1264.753906,578.671692 1260.653809,578.356934 
	C1192.855713,573.153137 1127.243896,557.875427 1063.166260,535.618652 
	C998.709656,513.230347 937.297485,484.170135 878.128845,450.287598 
	C866.473450,443.613220 854.929504,436.744263 842.952148,429.741699 
	C850.458679,443.342133 970.936279,526.907043 1026.092896,557.047424 
	C1091.482666,592.779663 1159.510986,622.191895 1231.287109,642.692566 
	C1078.035034,634.745361 935.634460,588.658875 799.713257,519.741516 
	C810.433228,534.430420 914.429382,597.470398 981.634949,629.965820 
	C1045.614258,660.901245 1111.594360,686.838623 1180.882690,707.274414 
	C1170.532593,715.922974 1161.140625,724.129944 1151.375854,731.866272 
	C1114.975952,760.704956 1076.126221,785.671021 1034.040161,805.467957 
	C989.085876,826.614014 942.149658,841.473511 893.203857,849.979675 
	C855.342346,856.559570 817.166504,859.278625 778.778259,858.673279 
	C744.773193,858.137146 710.957642,855.040771 677.298889,850.120422 
	C674.907166,849.770874 671.680847,850.694580 669.760437,852.198303 
	C597.620361,908.685608 525.525879,965.231750 453.595520,1021.985779 
	C439.632355,1033.002930 424.595490,1040.013672 406.464203,1039.197388 
	C374.330536,1037.750610 348.275299,1012.299133 346.185608,980.186279 
	C346.001831,977.362366 345.992767,974.523621 345.992432,971.691772 
	C345.982727,893.029114 345.984619,814.366516 345.984558,735.703857 
	C345.984558,733.733948 345.984589,731.764099 345.984589,729.219299 
	C343.645630,729.219299 341.699982,729.219299 339.754364,729.219299 
	C251.592209,729.218933 163.430038,729.243042 75.267899,729.204712 
	C45.212883,729.191650 21.536612,712.922180 12.871670,685.552368 
	C10.505165,678.077332 9.557747,669.865051 9.525469,661.984619 
	C9.266754,598.823914 9.383877,535.661682 9.386103,471.999878 
M841.510986,429.887085 
	C841.582642,429.712738 841.654236,429.538391 841.725830,429.364044 
	C841.529297,429.415436 841.332703,429.466827 841.510986,429.887085 
z"/>
<path fill="#FFFFFF" opacity="1.000000" stroke="none" 
	d="
M841.323608,429.702667 
	C841.332703,429.466827 841.529297,429.415436 841.725830,429.364044 
	C841.654236,429.538391 841.582642,429.712738 841.323608,429.702667 
z"/>
</svg>