<svg version="1.1" id="Layer_1" xmlns="http://www.w3.org/2000/svg" xmlns:xlink="http://www.w3.org/1999/xlink" x="0px" y="0px"
	 width="100%" viewBox="0 0 2272 592" enable-background="new 0 0 2272 592" xml:space="preserve">
<path fill="#FFFFFF" opacity="1.000000" stroke="none" 
	d="
M1642.000000,593.000000 
	C1094.666626,593.000000 547.833313,593.000000 1.000000,593.000000 
	C1.000000,395.666656 1.000000,198.333328 1.000000,1.000000 
	C758.333313,1.000000 1515.666626,1.000000 2273.000000,1.000000 
	C2273.000000,198.333328 2273.000000,395.666656 2273.000000,593.000000 
	C2062.833252,593.000000 1852.666626,593.000000 1642.000000,593.000000 
M1664.043945,189.913162 
	C1664.043945,189.913162 1664.067139,189.865021 1663.535522,189.186859 
	C1662.884277,189.082840 1662.233032,188.887939 1661.581787,188.887726 
	C1610.241455,188.871597 1558.901001,188.864075 1507.560669,188.909042 
	C1506.349365,188.910110 1505.138672,189.512695 1503.816772,190.787476 
	C1503.816772,267.212006 1503.816772,343.636566 1503.816772,420.187012 
	C1505.789307,420.273621 1507.103149,420.381470 1508.416992,420.381714 
	C1559.078125,420.390289 1609.739136,420.391205 1660.400269,420.377014 
	C1661.723633,420.376648 1663.046997,420.197479 1664.911743,419.456909 
	C1664.982422,405.495392 1665.071045,391.533905 1665.081299,377.572357 
	C1665.081909,376.696625 1664.470337,375.820465 1663.466431,374.433685 
	C1625.916260,374.433685 1588.366211,374.433685 1550.890869,374.433685 
	C1550.890869,358.613831 1550.890869,343.802979 1551.345581,328.867981 
	C1551.637573,328.722046 1551.856323,328.502899 1552.931274,328.086273 
	C1577.829346,328.086273 1602.727295,328.086273 1627.585938,328.086273 
	C1627.585938,312.298767 1627.585938,297.363281 1627.585938,281.790833 
	C1602.225342,281.790833 1577.113403,281.790833 1551.727661,281.406342 
	C1551.495117,281.173401 1551.214966,281.040771 1550.658569,280.092865 
	C1550.658569,265.341217 1550.658569,250.589569 1550.658569,235.378845 
	C1553.342651,235.378845 1555.313477,235.378860 1557.284180,235.378860 
	C1584.112671,235.378845 1610.941162,235.400269 1637.769653,235.366699 
	C1646.593018,235.355652 1655.416016,235.202164 1664.850830,234.518005 
	C1664.927002,220.362991 1665.017456,206.208008 1665.036743,192.052887 
	C1665.037720,191.350037 1664.418579,190.646332 1664.043945,189.913162 
M1446.484619,189.177139 
	C1431.079346,189.177139 1415.673950,189.177139 1399.824219,189.177139 
	C1399.824219,191.289581 1399.824341,192.925583 1399.824341,194.561584 
	C1399.824341,268.206482 1399.821899,341.851410 1399.840698,415.496307 
	C1399.841064,416.974915 1400.088745,418.453491 1401.213257,420.258514 
	C1416.156982,420.377563 1431.100830,420.496582 1446.374268,420.811829 
	C1446.589600,420.555573 1446.804810,420.299286 1447.082642,419.102020 
	C1447.069824,342.673553 1447.057129,266.245056 1446.484619,189.177139 
M746.971497,328.091736 
	C769.698853,328.077484 792.426147,328.063232 815.839966,327.532074 
	C815.934875,312.869110 816.040100,298.206177 816.083191,283.543060 
	C816.084778,283.013336 815.475708,282.481842 814.195068,281.939148 
	C791.471619,281.865570 768.748108,281.791992 745.909485,281.388763 
	C745.788208,281.171692 745.606445,281.035370 745.201294,280.058838 
	C745.240173,265.429199 745.278992,250.799591 745.708862,236.102112 
	C745.979736,235.996689 746.144836,235.801697 747.106689,235.410614 
	C785.512756,235.410614 823.918762,235.410614 862.630615,235.410614 
	C862.630615,220.036713 862.633606,205.266068 862.605347,190.495438 
	C862.604858,190.236206 862.226196,189.977676 861.433777,189.117706 
	C860.944641,189.033981 860.455566,188.877090 859.966431,188.876938 
	C807.245117,188.860886 754.523804,188.846497 701.802551,188.914825 
	C700.593750,188.916397 699.386108,189.860718 698.301941,191.249771 
	C698.301941,267.454468 698.301941,343.659180 698.301941,420.111298 
	C714.243164,420.111298 729.463440,420.111298 745.168518,420.111298 
	C745.168518,417.881378 745.165466,415.923798 745.169006,413.966217 
	C745.220154,385.662628 745.272156,357.359009 745.672791,328.896179 
	C745.876282,328.723297 746.002686,328.505676 746.971497,328.091736 
M1710.709717,190.717056 
	C1710.709717,267.142822 1710.709717,343.568604 1710.709717,419.989532 
	C1726.584473,419.989532 1741.797974,419.989532 1757.456055,419.989532 
	C1757.456055,404.784698 1757.456055,389.974396 1757.822632,374.998901 
	C1758.024170,374.800079 1758.129272,374.559204 1759.048950,374.145630 
	C1774.805542,374.088074 1790.562378,373.978973 1806.318359,374.056610 
	C1807.815063,374.063965 1810.046021,374.831543 1810.664795,375.949677 
	C1812.769287,379.753387 1814.293091,383.877228 1816.058838,387.869904 
	C1820.667847,398.291656 1825.287354,408.708771 1829.990723,419.628815 
	C1830.260010,419.801697 1830.529297,419.974579 1831.744751,420.345032 
	C1847.449463,420.378174 1863.154297,420.411346 1879.202148,420.739166 
	C1879.452881,420.475922 1879.703735,420.212646 1879.923462,419.222382 
	C1871.795898,400.525146 1863.614502,381.850677 1855.665649,363.077759 
	C1855.153687,361.868347 1855.941528,359.383972 1856.981812,358.386353 
	C1859.466797,356.002930 1862.670166,354.379852 1865.223145,352.054077 
	C1891.507690,328.108673 1903.038574,298.941925 1895.981689,263.453339 
	C1890.408447,235.424332 1874.115723,215.081818 1849.682617,201.142151 
	C1836.287720,193.500076 1821.652344,189.592804 1805.497192,189.184647 
	C1804.675903,189.086823 1803.854492,188.903885 1803.033203,188.903458 
	C1773.554810,188.888153 1744.076294,188.879288 1714.597900,188.926270 
	C1713.363525,188.928253 1712.129761,189.472977 1710.709717,190.717056 
M1288.032593,419.585907 
	C1288.309570,419.759735 1288.586670,419.933563 1289.795410,420.337006 
	C1305.763184,420.337006 1321.730957,420.337006 1338.298096,420.337006 
	C1329.533691,399.915466 1321.006226,380.046295 1312.455688,360.123108 
	C1314.009399,358.940338 1315.156128,358.036743 1316.333740,357.175507 
	C1347.056030,334.706055 1360.361450,304.489746 1354.818726,266.891174 
	C1351.044800,241.291107 1337.340820,221.143768 1316.183472,206.317596 
	C1300.607544,195.402542 1283.206665,189.732529 1263.485840,189.165024 
	C1262.830811,189.069794 1262.175903,188.891586 1261.520874,188.891235 
	C1231.875244,188.875565 1202.229614,188.864426 1172.584106,188.912933 
	C1171.360962,188.914932 1170.139038,189.493576 1168.780273,190.757614 
	C1168.780273,267.224091 1168.780273,343.690552 1168.780273,419.951599 
	C1184.765137,419.951599 1199.975586,419.951599 1215.638306,419.951599 
	C1215.638306,404.721893 1215.638306,389.925568 1215.940796,374.966736 
	C1216.102905,374.782318 1216.167236,374.568512 1217.038818,374.153198 
	C1229.693726,374.105774 1242.364014,374.420685 1254.998169,373.883423 
	C1263.409302,373.525757 1270.779907,373.416016 1272.174316,384.298401 
	C1272.426025,386.263367 1274.153564,388.004791 1275.015747,389.931732 
	C1279.355469,399.631836 1283.634277,409.359161 1288.032593,419.585907 
M343.027283,307.807129 
	C383.118622,327.107910 424.928528,340.130524 469.685211,342.487610 
	C427.066803,329.503662 388.929077,308.291351 354.518280,280.119598 
	C356.171448,280.291138 357.729553,280.715363 359.079224,281.498657 
	C379.419678,293.303802 400.651215,303.170685 422.996277,310.519562 
	C440.895660,316.406372 459.172821,320.667297 478.028625,322.120453 
	C480.310211,322.296295 482.191650,322.440948 483.056854,319.552887 
	C487.114960,306.006470 489.504211,292.292847 486.510925,278.232300 
	C482.463776,259.221344 471.544525,244.297043 457.373932,231.629959 
	C436.950897,213.373795 412.678741,202.235687 386.693726,194.485474 
	C385.444000,194.112732 383.824310,194.462952 382.512238,194.891159 
	C326.512299,213.168182 270.566711,231.613159 214.504837,249.697693 
	C204.585266,252.897537 195.057968,257.512390 184.054749,257.335938 
	C158.568420,256.927307 133.071075,257.207458 107.578186,257.208221 
	C94.913177,257.208588 85.789581,264.261414 85.806488,276.544739 
	C85.840637,301.369659 85.739220,326.195251 85.924820,351.018829 
	C85.948517,354.188538 86.778847,357.643982 88.228439,360.454987 
	C92.133034,368.026550 99.020782,370.160034 107.156189,370.117126 
	C133.481445,369.978302 159.807877,370.066620 186.133865,370.067413 
	C187.914200,370.067444 189.694550,370.067413 191.916977,370.067413 
	C191.916977,372.390381 191.916962,374.186981 191.916977,375.983551 
	C191.917114,399.310364 191.948944,422.637268 191.898071,445.963989 
	C191.882843,452.950409 193.454514,459.158020 199.151398,463.824097 
	C205.987732,469.423523 216.185913,470.055115 226.038910,462.269012 
	C246.834518,445.835815 267.731476,429.529663 288.409851,412.950531 
	C292.274261,409.852203 296.204651,408.422699 300.991211,408.868347 
	C308.142487,409.534149 315.283234,410.505554 322.449921,410.773987 
	C337.436584,411.335327 352.355377,410.791565 367.168884,407.868500 
	C393.676666,402.637878 417.667969,391.845093 439.413605,375.958344 
	C444.709381,372.089386 449.699066,367.801453 455.210663,363.401886 
	C453.730835,362.762115 452.985352,362.409760 452.218414,362.112610 
	C433.326538,354.793488 414.175262,348.071838 395.609741,340.002380 
	C376.378571,331.643646 358.100800,321.313934 341.799347,308.178925 
	C341.973511,308.002960 342.147705,307.826965 343.027283,307.807129 
M1103.492798,373.018311 
	C1121.033447,346.826599 1128.343506,318.280609 1123.007324,286.938202 
	C1117.246460,253.101105 1099.744263,226.772247 1071.584839,207.372757 
	C1054.370605,195.513504 1035.180542,188.800186 1014.499573,187.144531 
	C994.958801,185.580139 975.806763,187.970932 957.320190,195.300568 
	C936.795654,203.438187 919.975403,216.251694 906.427856,233.505859 
	C897.175964,245.289093 890.144836,258.442993 886.343994,272.832428 
	C883.479004,283.678772 881.862061,295.035645 881.293945,306.246613 
	C880.890503,314.207214 882.904053,322.348022 884.296692,330.328522 
	C886.436768,342.592651 890.932617,354.055450 897.382812,364.699402 
	C904.805481,376.948181 913.388855,388.359161 924.808838,397.123566 
	C932.704590,403.183319 940.839600,409.314880 949.745117,413.583832 
	C962.520630,419.707947 975.949402,424.726562 990.539490,424.828522 
	C1000.700439,424.899567 1011.079407,426.246368 1020.972656,424.636658 
	C1036.281494,422.145813 1051.150269,417.460785 1064.602783,409.066681 
	C1079.695557,399.649017 1092.979248,388.397705 1103.492798,373.018311 
M2154.027344,243.442200 
	C2146.958984,231.864258 2138.004150,221.881866 2127.428711,213.499084 
	C2099.527100,191.382065 2067.638184,183.152817 2032.577393,188.074890 
	C1994.527588,193.416580 1965.173828,213.164948 1945.472046,245.739471 
	C1931.747559,268.430908 1926.373291,293.609558 1930.075195,320.510223 
	C1932.029175,334.708649 1935.938599,348.000854 1942.592163,360.601227 
	C1951.606567,377.671967 1964.081665,391.719543 1979.621338,403.070587 
	C1998.369995,416.765472 2019.711914,423.697571 2042.544434,425.855865 
	C2055.000488,427.033356 2067.362793,425.127899 2079.613281,422.148804 
	C2099.854248,417.226654 2117.556885,407.727936 2132.687500,393.639801 
	C2162.349854,366.021057 2175.506836,332.053833 2171.033691,291.508881 
	C2169.145020,274.389618 2163.276123,258.708069 2154.027344,243.442200 
M497.338013,219.109283 
	C511.547333,229.511887 524.179993,241.509033 534.358459,255.951263 
	C540.917358,265.257629 546.317871,275.139801 548.847961,286.376740 
	C549.592590,289.683990 549.148621,291.905121 545.691223,294.082611 
	C539.980103,297.679565 534.521667,301.950653 529.785339,306.754578 
	C523.596436,313.031830 519.738220,320.838928 517.734802,330.322723 
	C528.316589,327.112610 537.999268,324.153748 547.695862,321.241272 
	C554.257629,319.270355 559.727905,320.939758 564.395386,325.999329 
	C570.004883,332.079956 575.833191,337.958801 582.121033,344.501831 
	C575.958496,346.022186 569.920715,347.798004 563.765259,348.939392 
	C558.886536,349.844025 554.966858,351.630066 551.252014,355.188934 
	C542.606323,363.471619 533.666931,371.510406 524.310608,378.976349 
	C500.666565,397.843170 474.774170,412.764618 445.115112,419.821045 
	C429.464600,423.544586 413.434845,425.674164 398.749420,428.312653 
	C404.813843,429.483765 412.350677,430.919098 419.879089,432.397400 
	C434.242035,435.217804 448.590271,438.113770 462.963074,440.882568 
	C476.230896,443.438477 489.534546,445.808563 502.801086,448.370941 
	C517.187378,451.149658 531.539490,454.105377 545.924133,456.893005 
	C560.911438,459.797485 575.984375,462.294800 590.901855,465.516235 
	C607.676941,469.138885 620.266846,457.236725 617.141052,440.416443 
	C614.282776,425.035095 611.697205,409.602997 609.009155,394.190186 
	C605.840027,376.019684 602.738342,357.837250 599.518311,339.675812 
	C596.068665,320.219696 592.496033,300.785370 589.012268,281.335266 
	C585.412354,261.235840 581.851929,241.129288 578.279419,221.024918 
	C574.851379,201.733078 571.111389,182.489594 568.101501,163.132645 
	C565.465637,146.181686 554.358826,138.731400 538.190430,143.998383 
	C506.738770,154.244019 475.300262,164.529999 443.855072,174.795517 
	C431.927094,178.689499 419.995697,182.573105 408.065857,186.461441 
	C440.610687,189.556259 470.161896,199.984604 497.338013,219.109283 
z"/>
<path fill="#0166FF" opacity="1.000000" stroke="none" 
	d="
M341.245850,308.674347 
	C358.100800,321.313934 376.378571,331.643646 395.609741,340.002380 
	C414.175262,348.071838 433.326538,354.793488 452.218414,362.112610 
	C452.985352,362.409760 453.730835,362.762115 455.210663,363.401886 
	C449.699066,367.801453 444.709381,372.089386 439.413605,375.958344 
	C417.667969,391.845093 393.676666,402.637878 367.168884,407.868500 
	C352.355377,410.791565 337.436584,411.335327 322.449921,410.773987 
	C315.283234,410.505554 308.142487,409.534149 300.991211,408.868347 
	C296.204651,408.422699 292.274261,409.852203 288.409851,412.950531 
	C267.731476,429.529663 246.834518,445.835815 226.038910,462.269012 
	C216.185913,470.055115 205.987732,469.423523 199.151398,463.824097 
	C193.454514,459.158020 191.882843,452.950409 191.898071,445.963989 
	C191.948944,422.637268 191.917114,399.310364 191.916977,375.983551 
	C191.916962,374.186981 191.916977,372.390381 191.916977,370.067413 
	C189.694550,370.067413 187.914200,370.067444 186.133865,370.067413 
	C159.807877,370.066620 133.481445,369.978302 107.156189,370.117126 
	C99.020782,370.160034 92.133034,368.026550 88.228439,360.454987 
	C86.778847,357.643982 85.948517,354.188538 85.924820,351.018829 
	C85.739220,326.195251 85.840637,301.369659 85.806488,276.544739 
	C85.789581,264.261414 94.913177,257.208588 107.578186,257.208221 
	C133.071075,257.207458 158.568420,256.927307 184.054749,257.335938 
	C195.057968,257.512390 204.585266,252.897537 214.504837,249.697693 
	C270.566711,231.613159 326.512299,213.168182 382.512238,194.891159 
	C383.824310,194.462952 385.444000,194.112732 386.693726,194.485474 
	C412.678741,202.235687 436.950897,213.373795 457.373932,231.629959 
	C471.544525,244.297043 482.463776,259.221344 486.510925,278.232300 
	C489.504211,292.292847 487.114960,306.006470 483.056854,319.552887 
	C482.191650,322.440948 480.310211,322.296295 478.028625,322.120453 
	C459.172821,320.667297 440.895660,316.406372 422.996277,310.519562 
	C400.651215,303.170685 379.419678,293.303802 359.079224,281.498657 
	C357.729553,280.715363 356.171448,280.291138 354.518280,280.119598 
	C388.929077,308.291351 427.066803,329.503662 469.685211,342.487610 
	C424.928528,340.130524 383.118622,327.107910 342.433960,307.496277 
	C341.010223,307.185455 340.179810,307.185455 339.131897,307.185455 
	C339.575684,307.657257 339.739716,307.919189 339.975739,308.062927 
	C340.375153,308.306091 340.820068,308.474487 341.245850,308.674347 
z"/>
<path fill="#0267FF" opacity="1.000000" stroke="none" 
	d="
M1103.267578,373.304871 
	C1092.979248,388.397705 1079.695557,399.649017 1064.602783,409.066681 
	C1051.150269,417.460785 1036.281494,422.145813 1020.972656,424.636658 
	C1011.079407,426.246368 1000.700439,424.899567 990.539490,424.828522 
	C975.949402,424.726562 962.520630,419.707947 949.745117,413.583832 
	C940.839600,409.314880 932.704590,403.183319 924.808838,397.123566 
	C913.388855,388.359161 904.805481,376.948181 897.382812,364.699402 
	C890.932617,354.055450 886.436768,342.592651 884.296692,330.328522 
	C882.904053,322.348022 880.890503,314.207214 881.293945,306.246613 
	C881.862061,295.035645 883.479004,283.678772 886.343994,272.832428 
	C890.144836,258.442993 897.175964,245.289093 906.427856,233.505859 
	C919.975403,216.251694 936.795654,203.438187 957.320190,195.300568 
	C975.806763,187.970932 994.958801,185.580139 1014.499573,187.144531 
	C1035.180542,188.800186 1054.370605,195.513504 1071.584839,207.372757 
	C1099.744263,226.772247 1117.246460,253.101105 1123.007324,286.938202 
	C1128.343506,318.280609 1121.033447,346.826599 1103.267578,373.304871 
M1065.844849,346.282410 
	C1077.324341,328.842773 1081.176514,309.813904 1076.302612,289.545319 
	C1067.111816,251.324112 1032.235352,227.462357 992.255493,233.287796 
	C936.512634,241.410019 910.270203,303.938019 942.501831,348.285980 
	C972.989380,390.234131 1035.774536,389.572144 1065.844849,346.282410 
z"/>
<path fill="#0267FF" opacity="1.000000" stroke="none" 
	d="
M2154.247070,243.735291 
	C2163.276123,258.708069 2169.145020,274.389618 2171.033691,291.508881 
	C2175.506836,332.053833 2162.349854,366.021057 2132.687500,393.639801 
	C2117.556885,407.727936 2099.854248,417.226654 2079.613281,422.148804 
	C2067.362793,425.127899 2055.000488,427.033356 2042.544434,425.855865 
	C2019.711914,423.697571 1998.369995,416.765472 1979.621338,403.070587 
	C1964.081665,391.719543 1951.606567,377.671967 1942.592163,360.601227 
	C1935.938599,348.000854 1932.029175,334.708649 1930.075195,320.510223 
	C1926.373291,293.609558 1931.747559,268.430908 1945.472046,245.739471 
	C1965.173828,213.164948 1994.527588,193.416580 2032.577393,188.074890 
	C2067.638184,183.152817 2099.527100,191.382065 2127.428711,213.499084 
	C2138.004150,221.881866 2146.958984,231.864258 2154.247070,243.735291 
M2120.964844,331.379425 
	C2127.186279,315.006348 2127.526367,298.434784 2121.600342,282.028809 
	C2109.251709,247.840408 2076.906250,228.121994 2039.822510,233.239151 
	C1993.646118,239.610992 1964.437256,286.158569 1980.239624,330.123566 
	C1990.857422,359.664246 2018.205688,378.597168 2050.036621,379.249908 
	C2080.880127,379.882385 2108.151611,361.704926 2120.964844,331.379425 
z"/>
<path fill="#0166FF" opacity="1.000000" stroke="none" 
	d="
M1264.070801,189.786591 
	C1283.206665,189.732529 1300.607544,195.402542 1316.183472,206.317596 
	C1337.340820,221.143768 1351.044800,241.291107 1354.818726,266.891174 
	C1360.361450,304.489746 1347.056030,334.706055 1316.333740,357.175507 
	C1315.156128,358.036743 1314.009399,358.940338 1312.455688,360.123108 
	C1321.006226,380.046295 1329.533691,399.915466 1338.298096,420.337006 
	C1321.730957,420.337006 1305.763184,420.337006 1289.260742,419.984375 
	C1288.543335,419.331085 1288.279419,419.146149 1287.934448,419.076935 
	C1283.634277,409.359161 1279.355469,399.631836 1275.015747,389.931732 
	C1274.153564,388.004791 1272.426025,386.263367 1272.174316,384.298401 
	C1270.779907,373.416016 1263.409302,373.525757 1254.998169,373.883423 
	C1242.364014,374.420685 1229.693726,374.105774 1216.358643,374.248840 
	C1215.678467,374.344513 1215.430542,374.725128 1215.430542,374.725128 
	C1215.430542,374.725128 1215.638306,375.129211 1215.638306,375.129211 
	C1215.638306,389.925568 1215.638306,404.721893 1215.638306,419.951599 
	C1199.975586,419.951599 1184.765137,419.951599 1168.780273,419.951599 
	C1168.780273,343.690552 1168.780273,267.224091 1169.323242,190.272675 
	C1201.267700,189.787354 1232.669312,189.786972 1264.070801,189.786591 
M1215.413330,306.499756 
	C1215.413330,313.608093 1215.413330,320.716461 1215.413330,328.117737 
	C1231.672729,328.117737 1247.301392,328.133545 1262.930176,328.114227 
	C1289.921387,328.080933 1312.436035,304.327271 1309.117554,275.905518 
	C1306.860474,256.574310 1288.403442,237.106293 1268.938965,236.190689 
	C1251.834839,235.386124 1234.682007,235.616302 1217.550171,235.423203 
	C1216.949707,235.416428 1216.345093,235.771423 1215.413574,236.059509 
	C1215.413574,259.277161 1215.413574,282.388489 1215.413330,306.499756 
z"/>
<path fill="#0166FF" opacity="1.000000" stroke="none" 
	d="
M1806.079956,189.811081 
	C1821.652344,189.592804 1836.287720,193.500076 1849.682617,201.142151 
	C1874.115723,215.081818 1890.408447,235.424332 1895.981689,263.453339 
	C1903.038574,298.941925 1891.507690,328.108673 1865.223145,352.054077 
	C1862.670166,354.379852 1859.466797,356.002930 1856.981812,358.386353 
	C1855.941528,359.383972 1855.153687,361.868347 1855.665649,363.077759 
	C1863.614502,381.850677 1871.795898,400.525146 1879.645020,419.665100 
	C1879.197266,420.220062 1879.028076,420.332306 1878.859009,420.444519 
	C1863.154297,420.411346 1847.449463,420.378174 1831.202026,420.015991 
	C1830.486206,419.393555 1830.234009,419.207153 1829.902710,419.127716 
	C1825.287354,408.708771 1820.667847,398.291656 1816.058838,387.869904 
	C1814.293091,383.877228 1812.769287,379.753387 1810.664795,375.949677 
	C1810.046021,374.831543 1807.815063,374.063965 1806.318359,374.056610 
	C1790.562378,373.978973 1774.805542,374.088074 1758.340576,374.213684 
	C1757.573608,374.575836 1757.514771,374.869965 1757.456055,375.164062 
	C1757.456055,389.974396 1757.456055,404.784698 1757.456055,419.989532 
	C1741.797974,419.989532 1726.584473,419.989532 1710.709717,419.989532 
	C1710.709717,343.568604 1710.709717,267.142822 1711.278809,190.263702 
	C1743.258667,189.810593 1774.669312,189.810837 1806.079956,189.811081 
M1804.418701,328.150208 
	C1816.170776,327.985382 1826.684692,324.339508 1835.458252,316.461578 
	C1848.969604,304.329590 1854.227783,289.059631 1850.031250,271.461731 
	C1845.375488,251.937759 1832.300415,239.134995 1812.702271,236.632050 
	C1794.846436,234.351669 1776.514404,235.796936 1758.392090,235.630203 
	C1758.139404,235.627899 1757.882935,236.017853 1757.677246,236.184906 
	C1757.677246,266.769104 1757.677246,297.308838 1757.677246,328.162048 
	C1773.171875,328.162048 1788.306030,328.162048 1804.418701,328.150208 
z"/>
<path fill="#0267FF" opacity="1.000000" stroke="none" 
	d="
M497.029053,218.928864 
	C470.161896,199.984604 440.610687,189.556259 408.065857,186.461441 
	C419.995697,182.573105 431.927094,178.689499 443.855072,174.795517 
	C475.300262,164.529999 506.738770,154.244019 538.190430,143.998383 
	C554.358826,138.731400 565.465637,146.181686 568.101501,163.132645 
	C571.111389,182.489594 574.851379,201.733078 578.279419,221.024918 
	C581.851929,241.129288 585.412354,261.235840 589.012268,281.335266 
	C592.496033,300.785370 596.068665,320.219696 599.518311,339.675812 
	C602.738342,357.837250 605.840027,376.019684 609.009155,394.190186 
	C611.697205,409.602997 614.282776,425.035095 617.141052,440.416443 
	C620.266846,457.236725 607.676941,469.138885 590.901855,465.516235 
	C575.984375,462.294800 560.911438,459.797485 545.924133,456.893005 
	C531.539490,454.105377 517.187378,451.149658 502.801086,448.370941 
	C489.534546,445.808563 476.230896,443.438477 462.963074,440.882568 
	C448.590271,438.113770 434.242035,435.217804 419.879089,432.397400 
	C412.350677,430.919098 404.813843,429.483765 398.749420,428.312653 
	C413.434845,425.674164 429.464600,423.544586 445.115112,419.821045 
	C474.774170,412.764618 500.666565,397.843170 524.310608,378.976349 
	C533.666931,371.510406 542.606323,363.471619 551.252014,355.188934 
	C554.966858,351.630066 558.886536,349.844025 563.765259,348.939392 
	C569.920715,347.798004 575.958496,346.022186 582.121033,344.501831 
	C575.833191,337.958801 570.004883,332.079956 564.395386,325.999329 
	C559.727905,320.939758 554.257629,319.270355 547.695862,321.241272 
	C537.999268,324.153748 528.316589,327.112610 517.734802,330.322723 
	C519.738220,320.838928 523.596436,313.031830 529.785339,306.754578 
	C534.521667,301.950653 539.980103,297.679565 545.691223,294.082611 
	C549.148621,291.905121 549.592590,289.683990 548.847961,286.376740 
	C546.317871,275.139801 540.917358,265.257629 534.358459,255.951263 
	C524.179993,241.509033 511.547333,229.511887 497.029053,218.928864 
z"/>
<path fill="#0267FF" opacity="1.000000" stroke="none" 
	d="
M1664.239258,235.113831 
	C1655.416016,235.202164 1646.593018,235.355652 1637.769653,235.366699 
	C1610.941162,235.400269 1584.112671,235.378845 1557.284180,235.378860 
	C1555.313477,235.378860 1553.342651,235.378845 1550.658569,235.378845 
	C1550.658569,250.589569 1550.658569,265.341217 1550.793579,280.840210 
	C1551.286255,281.655334 1551.643921,281.723083 1552.001587,281.790833 
	C1577.113403,281.790833 1602.225342,281.790833 1627.585938,281.790833 
	C1627.585938,297.363281 1627.585938,312.298767 1627.585938,328.086273 
	C1602.727295,328.086273 1577.829346,328.086273 1552.180664,328.102753 
	C1551.250366,328.410217 1551.070557,328.701172 1550.890869,328.992157 
	C1550.890869,343.802979 1550.890869,358.613831 1550.890869,374.433685 
	C1588.366211,374.433685 1625.916260,374.433685 1663.837402,375.160919 
	C1664.262451,390.626007 1664.316406,405.363892 1664.370361,420.101746 
	C1663.046997,420.197479 1661.723633,420.376648 1660.400269,420.377014 
	C1609.739136,420.391205 1559.078125,420.390289 1508.416992,420.381714 
	C1507.103149,420.381470 1505.789307,420.273621 1503.816772,420.187012 
	C1503.816772,343.636566 1503.816772,267.212006 1504.345703,190.284180 
	C1557.938843,189.808929 1611.002930,189.836975 1664.067139,189.865021 
	C1664.067139,189.865021 1664.043945,189.913162 1664.085938,190.400452 
	C1664.165161,205.629761 1664.202148,220.371796 1664.239258,235.113831 
z"/>
<path fill="#0367FF" opacity="1.000000" stroke="none" 
	d="
M746.024658,281.718384 
	C768.748108,281.791992 791.471619,281.865570 814.802734,282.403320 
	C815.324768,297.927979 815.239136,312.988495 815.153442,328.048981 
	C792.426147,328.063232 769.698853,328.077484 746.261780,328.145111 
	C745.476013,328.484131 745.399963,328.769775 745.323975,329.055420 
	C745.272156,357.359009 745.220154,385.662628 745.169006,413.966217 
	C745.165466,415.923798 745.168518,417.881378 745.168518,420.111298 
	C729.463440,420.111298 714.243164,420.111298 698.301941,420.111298 
	C698.301941,343.659180 698.301941,267.454468 698.652832,190.587631 
	C699.825623,189.834808 700.647644,189.664673 701.469604,189.664810 
	C754.987732,189.674042 808.505798,189.697067 862.023926,189.718842 
	C862.226196,189.977676 862.604858,190.236206 862.605347,190.495438 
	C862.633606,205.266068 862.630615,220.036713 862.630615,235.410614 
	C823.918762,235.410614 785.512756,235.410614 746.416016,235.388641 
	C745.589478,235.634430 745.453674,235.902191 745.317871,236.169952 
	C745.278992,250.799591 745.240173,265.429199 745.223450,280.744202 
	C745.245605,281.429565 745.562500,281.769714 745.562500,281.769714 
	C745.562500,281.769714 746.024658,281.718384 746.024658,281.718384 
z"/>
<path fill="#0267FF" opacity="1.000000" stroke="none" 
	d="
M1446.044556,420.615631 
	C1431.100830,420.496582 1416.156982,420.377563 1400.790771,419.640137 
	C1400.368286,342.715576 1400.368286,266.409363 1400.368286,189.816589 
	C1416.503784,189.816589 1431.774048,189.816589 1447.044312,189.816589 
	C1447.057129,266.245056 1447.069824,342.673553 1446.789673,419.685394 
	C1446.345947,420.384399 1446.195312,420.500000 1446.044556,420.615631 
z"/>
<path fill="#CEDBFF" opacity="1.000000" stroke="none" 
	d="
M1446.764404,189.496857 
	C1431.774048,189.816589 1416.503784,189.816589 1400.368286,189.816589 
	C1400.368286,266.409363 1400.368286,342.715576 1400.294678,419.476929 
	C1400.088745,418.453491 1399.841064,416.974915 1399.840698,415.496307 
	C1399.821899,341.851410 1399.824341,268.206482 1399.824341,194.561584 
	C1399.824341,192.925583 1399.824219,191.289581 1399.824219,189.177139 
	C1415.673950,189.177139 1431.079346,189.177139 1446.764404,189.496857 
z"/>
<path fill="#C3D3FF" opacity="1.000000" stroke="none" 
	d="
M861.728882,189.418274 
	C808.505798,189.697067 754.987732,189.674042 701.469604,189.664810 
	C700.647644,189.664673 699.825623,189.834808 698.590820,190.145386 
	C699.386108,189.860718 700.593750,188.916397 701.802551,188.914825 
	C754.523804,188.846497 807.245117,188.860886 859.966431,188.876938 
	C860.455566,188.877090 860.944641,189.033981 861.728882,189.418274 
z"/>
<path fill="#A9C0FF" opacity="1.000000" stroke="none" 
	d="
M1663.801270,189.525940 
	C1611.002930,189.836975 1557.938843,189.808929 1504.401123,189.807800 
	C1505.138672,189.512695 1506.349365,188.910110 1507.560669,188.909042 
	C1558.901001,188.864075 1610.241455,188.871597 1661.581787,188.887726 
	C1662.233032,188.887939 1662.884277,189.082840 1663.801270,189.525940 
z"/>
<path fill="#9BB6FF" opacity="1.000000" stroke="none" 
	d="
M1805.788574,189.497864 
	C1774.669312,189.810837 1743.258667,189.810593 1711.371826,189.787598 
	C1712.129761,189.472977 1713.363525,188.928253 1714.597900,188.926270 
	C1744.076294,188.879288 1773.554810,188.888153 1803.033203,188.903458 
	C1803.854492,188.903885 1804.675903,189.086823 1805.788574,189.497864 
z"/>
<path fill="#A5BDFF" opacity="1.000000" stroke="none" 
	d="
M1263.778320,189.475800 
	C1232.669312,189.786972 1201.267700,189.787354 1169.391357,189.795654 
	C1170.139038,189.493576 1171.360962,188.914932 1172.584106,188.912933 
	C1202.229614,188.864426 1231.875244,188.875565 1261.520874,188.891235 
	C1262.175903,188.891586 1262.830811,189.069794 1263.778320,189.475800 
z"/>
<path fill="#C3D3FF" opacity="1.000000" stroke="none" 
	d="
M815.496704,327.790527 
	C815.239136,312.988495 815.324768,297.927979 815.280823,282.409363 
	C815.475708,282.481842 816.084778,283.013336 816.083191,283.543060 
	C816.040100,298.206177 815.934875,312.869110 815.496704,327.790527 
z"/>
<path fill="#93B1FF" opacity="1.000000" stroke="none" 
	d="
M1664.545044,234.815918 
	C1664.202148,220.371796 1664.165161,205.629761 1664.108154,190.415375 
	C1664.418579,190.646332 1665.037720,191.350037 1665.036743,192.052887 
	C1665.017456,206.208008 1664.927002,220.362991 1664.545044,234.815918 
z"/>
<path fill="#A9C0FF" opacity="1.000000" stroke="none" 
	d="
M1664.640991,419.779327 
	C1664.316406,405.363892 1664.262451,390.626007 1664.176025,375.416321 
	C1664.470337,375.820465 1665.081909,376.696625 1665.081299,377.572357 
	C1665.071045,391.533905 1664.982422,405.495392 1664.640991,419.779327 
z"/>
<path fill="#E5EBFF" opacity="1.000000" stroke="none" 
	d="
M1551.864624,281.598572 
	C1551.643921,281.723083 1551.286255,281.655334 1550.907959,281.298035 
	C1551.214966,281.040771 1551.495117,281.173401 1551.864624,281.598572 
z"/>
<path fill="#C3D3FF" opacity="1.000000" stroke="none" 
	d="
M745.498413,328.975800 
	C745.399963,328.769775 745.476013,328.484131 745.802063,328.220886 
	C746.002686,328.505676 745.876282,328.723297 745.498413,328.975800 
z"/>
<path fill="#E5EBFF" opacity="1.000000" stroke="none" 
	d="
M1551.118164,328.930054 
	C1551.070557,328.701172 1551.250366,328.410217 1551.715820,328.164886 
	C1551.856323,328.502899 1551.637573,328.722046 1551.118164,328.930054 
z"/>
<path fill="#A5BDFF" opacity="1.000000" stroke="none" 
	d="
M1215.789551,375.047974 
	C1215.638306,375.129211 1215.430542,374.725128 1215.430542,374.725128 
	C1215.430542,374.725128 1215.678467,374.344513 1215.906006,374.334900 
	C1216.167236,374.568512 1216.102905,374.782318 1215.789551,375.047974 
z"/>
<path fill="#9BB6FF" opacity="1.000000" stroke="none" 
	d="
M1757.639404,375.081482 
	C1757.514771,374.869965 1757.573608,374.575836 1757.885010,374.279022 
	C1758.129272,374.559204 1758.024170,374.800079 1757.639404,375.081482 
z"/>
<path fill="#D7E2FF" opacity="1.000000" stroke="none" 
	d="
M745.967041,281.553589 
	C746.024658,281.718384 745.562500,281.769714 745.562500,281.769714 
	C745.562500,281.769714 745.245605,281.429565 745.304810,281.204712 
	C745.606445,281.035370 745.788208,281.171692 745.967041,281.553589 
z"/>
<path fill="#93B1FF" opacity="1.000000" stroke="none" 
	d="
M745.513367,236.136032 
	C745.453674,235.902191 745.589478,235.634430 745.964722,235.441910 
	C746.144836,235.801697 745.979736,235.996689 745.513367,236.136032 
z"/>
<path fill="#93B1FF" opacity="1.000000" stroke="none" 
	d="
M1287.983521,419.331421 
	C1288.279419,419.146149 1288.543335,419.331085 1288.794922,419.869568 
	C1288.586670,419.933563 1288.309570,419.759735 1287.983521,419.331421 
z"/>
<path fill="#93B1FF" opacity="1.000000" stroke="none" 
	d="
M1829.946777,419.378265 
	C1830.234009,419.207153 1830.486206,419.393555 1830.729004,419.917206 
	C1830.529297,419.974579 1830.260010,419.801697 1829.946777,419.378265 
z"/>
<path fill="#CEDBFF" opacity="1.000000" stroke="none" 
	d="
M1446.209473,420.713745 
	C1446.195312,420.500000 1446.345947,420.384399 1446.758301,420.155884 
	C1446.804810,420.299286 1446.589600,420.555573 1446.209473,420.713745 
z"/>
<path fill="#93B1FF" opacity="1.000000" stroke="none" 
	d="
M1879.030518,420.591858 
	C1879.028076,420.332306 1879.197266,420.220062 1879.660522,420.028625 
	C1879.703735,420.212646 1879.452881,420.475922 1879.030518,420.591858 
z"/>
<path fill="#FFFFFF" opacity="1.000000" stroke="none" 
	d="
M341.522583,308.426636 
	C340.820068,308.474487 340.375153,308.306091 339.975739,308.062927 
	C339.739716,307.919189 339.575684,307.657257 339.131897,307.185455 
	C340.179810,307.185455 341.010223,307.185455 342.081268,307.418213 
	C342.147705,307.826965 341.973511,308.002960 341.522583,308.426636 
z"/>
<path fill="#FEFEFF" opacity="1.000000" stroke="none" 
	d="
M1065.634399,346.576355 
	C1035.774536,389.572144 972.989380,390.234131 942.501831,348.285980 
	C910.270203,303.938019 936.512634,241.410019 992.255493,233.287796 
	C1032.235352,227.462357 1067.111816,251.324112 1076.302612,289.545319 
	C1081.176514,309.813904 1077.324341,328.842773 1065.634399,346.576355 
z"/>
<path fill="#FEFEFF" opacity="1.000000" stroke="none" 
	d="
M2120.852783,331.751221 
	C2108.151611,361.704926 2080.880127,379.882385 2050.036621,379.249908 
	C2018.205688,378.597168 1990.857422,359.664246 1980.239624,330.123566 
	C1964.437256,286.158569 1993.646118,239.610992 2039.822510,233.239151 
	C2076.906250,228.121994 2109.251709,247.840408 2121.600342,282.028809 
	C2127.526367,298.434784 2127.186279,315.006348 2120.852783,331.751221 
z"/>
<path fill="#FCFDFF" opacity="1.000000" stroke="none" 
	d="
M1215.413452,305.999786 
	C1215.413574,282.388489 1215.413574,259.277161 1215.413574,236.059509 
	C1216.345093,235.771423 1216.949707,235.416428 1217.550171,235.423203 
	C1234.682007,235.616302 1251.834839,235.386124 1268.938965,236.190689 
	C1288.403442,237.106293 1306.860474,256.574310 1309.117554,275.905518 
	C1312.436035,304.327271 1289.921387,328.080933 1262.930176,328.114227 
	C1247.301392,328.133545 1231.672729,328.117737 1215.413330,328.117737 
	C1215.413330,320.716461 1215.413330,313.608093 1215.413452,305.999786 
z"/>
<path fill="#FDFDFF" opacity="1.000000" stroke="none" 
	d="
M1803.929443,328.156128 
	C1788.306030,328.162048 1773.171875,328.162048 1757.677246,328.162048 
	C1757.677246,297.308838 1757.677246,266.769104 1757.677246,236.184906 
	C1757.882935,236.017853 1758.139404,235.627899 1758.392090,235.630203 
	C1776.514404,235.796936 1794.846436,234.351669 1812.702271,236.632050 
	C1832.300415,239.134995 1845.375488,251.937759 1850.031250,271.461731 
	C1854.227783,289.059631 1848.969604,304.329590 1835.458252,316.461578 
	C1826.684692,324.339508 1816.170776,327.985382 1803.929443,328.156128 
z"/>
</svg>