<svg version="1.1" id="Layer_1" xmlns="http://www.w3.org/2000/svg" xmlns:xlink="http://www.w3.org/1999/xlink" x="0px" y="0px"
	 width="100%" viewBox="0 0 2094 332" enable-background="new 0 0 2094 332" xml:space="preserve">
<path fill="#FEFEFF" opacity="1.000000" stroke="none" 
	d="
M1579.000000,333.000000 
	C1052.720703,333.000000 526.941528,333.000000 1.081145,333.000000 
	C1.081145,222.398865 1.081145,111.797653 1.081145,1.098222 
	C699.000000,1.098222 1397.000000,1.098222 2094.973145,1.098222 
	C2094.973145,111.725388 2094.973145,222.362701 2094.973145,333.000000 
	C1923.130737,333.000000 1751.315308,333.000000 1579.000000,333.000000 
M401.182434,129.363647 
	C395.594666,114.875282 386.194000,103.122169 374.664001,93.013367 
	C355.307556,76.042770 332.653900,65.087021 308.264679,57.531368 
	C305.500732,56.675102 301.997650,56.585865 299.269196,57.471470 
	C237.608444,77.485191 176.013931,97.702888 114.377396,117.791451 
	C111.591927,118.699272 108.530365,119.137276 105.594902,119.148621 
	C79.101280,119.251091 52.606991,119.163101 26.113136,119.228287 
	C11.767224,119.263588 3.799677,127.206886 3.759181,141.485260 
	C3.694436,164.313248 3.694365,187.141708 3.758968,209.969696 
	C3.799512,224.296310 11.692638,232.041428 26.144224,232.056702 
	C52.138325,232.084198 78.132469,232.065018 104.126595,232.065338 
	C105.907845,232.065353 107.689102,232.065323 109.919113,232.065323 
	C109.919113,234.390900 109.919098,236.182220 109.919106,237.973557 
	C109.919228,261.301605 109.959816,284.629791 109.895508,307.957672 
	C109.875504,315.212128 111.982933,321.433838 117.980492,325.851257 
	C126.212959,331.914734 135.201385,331.227875 144.509232,323.925995 
	C166.262894,306.860535 187.967316,289.731873 209.799911,272.768127 
	C211.583344,271.382416 214.222336,270.298309 216.410706,270.386841 
	C222.374191,270.627960 228.296371,271.731506 234.257553,272.213562 
	C279.330658,275.858521 320.395020,264.888763 357.060211,238.202789 
	C362.472107,234.263855 367.573425,229.898254 372.361786,226.092972 
	C352.182037,217.890015 332.113220,210.343246 312.571350,201.616425 
	C293.067291,192.906509 274.555176,182.230560 257.559540,168.853531 
	C297.945557,188.016113 339.897705,201.294342 384.691833,204.252487 
	C374.831635,200.029129 364.702698,196.542664 354.903076,192.296219 
	C345.000977,188.005341 335.242828,183.297653 325.757690,178.152863 
	C316.263428,173.003098 306.987518,167.385101 297.980103,161.422180 
	C289.136444,155.567688 280.750854,149.021255 272.164246,142.778473 
	C272.400604,142.394028 272.636993,142.009567 272.873352,141.625107 
	C274.607574,142.430618 276.344055,143.231277 278.075653,144.042404 
	C296.269165,152.564621 314.162445,161.820953 332.735626,169.414337 
	C352.967712,177.685944 374.295624,182.362366 396.175079,184.136322 
	C398.555786,184.329346 400.267365,184.203659 401.099030,181.405655 
	C406.178925,164.314957 408.270905,147.234070 401.182434,129.363647 
M2063.764648,242.243454 
	C2074.548828,229.208954 2081.941406,214.342728 2086.137939,198.083649 
	C2095.374512,162.297989 2089.377686,128.947266 2067.699463,99.023430 
	C2045.408691,68.254204 2014.792358,51.257729 1976.874634,48.957691 
	C1936.453613,46.505806 1902.447632,60.832878 1875.893921,91.570808 
	C1852.954834,118.124573 1844.055298,149.243622 1848.606567,183.904312 
	C1852.644775,214.658905 1867.513306,239.714340 1891.289429,259.399384 
	C1918.223877,281.699249 1949.378784,290.483429 1983.949463,286.451385 
	C2016.197876,282.690186 2042.402832,267.435211 2063.764648,242.243454 
M912.639099,287.111359 
	C914.971069,287.177521 917.302673,287.258118 919.635010,287.307709 
	C982.635803,288.647797 1036.288696,241.056946 1042.227661,178.569321 
	C1047.757812,120.382751 1008.003113,65.093117 950.674622,52.055355 
	C909.052185,42.589500 871.468628,51.581268 839.636414,80.199028 
	C808.597595,108.103622 795.374634,143.585190 801.337585,184.927689 
	C809.320435,240.274933 856.054810,282.847748 912.639099,287.111359 
M1241.484619,214.011871 
	C1248.135620,206.176376 1256.124023,199.116394 1261.197388,190.366150 
	C1279.545532,158.720551 1279.437988,126.381218 1259.997314,95.340416 
	C1241.399048,65.645073 1213.321289,51.676460 1178.521362,51.355358 
	C1149.529419,51.087852 1120.532959,51.296406 1091.538574,51.309666 
	C1090.081177,51.310333 1088.623901,51.458942 1087.111328,51.541683 
	C1087.111328,128.613998 1087.111328,205.332657 1087.111328,281.971497 
	C1102.690308,281.971497 1117.910645,281.971497 1133.695557,281.971497 
	C1133.695557,266.495941 1133.695557,251.428207 1133.695557,235.963242 
	C1150.752686,235.963242 1167.241089,235.882767 1183.725220,236.110046 
	C1185.102051,236.129028 1187.057129,237.945786 1187.716675,239.394745 
	C1193.505005,252.110413 1199.254028,264.852570 1204.564209,277.772034 
	C1206.127686,281.576263 1208.120483,282.613708 1211.974121,282.470276 
	C1219.795044,282.179169 1227.634521,282.383301 1235.466309,282.383301 
	C1242.226807,282.383301 1248.987305,282.383331 1256.313965,282.383331 
	C1255.414307,280.137024 1254.842163,278.611633 1254.198853,277.116882 
	C1247.887451,262.450775 1241.555176,247.793655 1235.247681,233.125870 
	C1230.593018,222.301788 1230.605835,222.296951 1240.201050,215.140991 
	C1240.467529,214.942261 1240.709717,214.710968 1241.484619,214.011871 
M1708.499512,236.029526 
	C1713.496826,236.012711 1718.507568,236.213501 1723.486694,235.904694 
	C1726.965332,235.688950 1728.739868,236.743408 1730.146118,240.113113 
	C1735.587524,253.153992 1741.360474,266.058380 1747.176270,278.938568 
	C1747.805664,280.332672 1749.501465,282.207550 1750.725830,282.224976 
	C1766.357544,282.447693 1781.993530,282.371826 1798.248657,282.371826 
	C1797.416626,280.326660 1796.836304,278.827362 1796.201538,277.351410 
	C1788.910645,260.397186 1781.695190,243.409561 1774.242554,226.526657 
	C1772.787109,223.229324 1772.953247,221.426590 1776.178101,219.277420 
	C1790.814331,209.523102 1801.872437,196.512222 1808.521118,180.250076 
	C1822.536377,145.970352 1818.053711,113.895645 1794.617920,85.256218 
	C1775.383911,61.751568 1749.613770,51.334187 1719.472900,51.305630 
	C1690.987549,51.278641 1662.502197,51.299603 1634.016846,51.299469 
	C1632.395508,51.299465 1630.774292,51.299469 1629.004883,51.299469 
	C1629.004883,128.567535 1629.004883,205.260406 1629.004883,282.010742 
	C1644.546387,282.010742 1659.754272,282.010742 1675.515381,282.010742 
	C1675.515381,266.573120 1675.515381,251.500763 1675.515381,236.032288 
	C1686.545776,236.032288 1697.022705,236.032288 1708.499512,236.029526 
M516.764709,196.796097 
	C515.974365,192.544815 515.154663,188.298737 514.398071,184.041458 
	C504.939484,130.818375 495.421173,77.605759 486.078796,24.362280 
	C483.139893,7.613181 472.373749,0.781535 456.233185,6.044680 
	C414.361084,19.698387 372.502441,33.393223 330.645294,47.092686 
	C329.428223,47.491024 328.288391,48.125366 326.078308,49.110840 
	C333.858856,50.192398 340.464844,50.791714 346.939087,52.062187 
	C390.403687,60.591438 425.841217,82.122108 452.260590,117.891716 
	C459.215363,127.307907 464.652893,137.569504 466.993591,149.250473 
	C467.646301,152.507767 466.585419,154.110718 463.774811,155.992081 
	C458.150024,159.757248 452.606171,163.874832 447.867554,168.674820 
	C441.672058,174.950546 437.764099,182.749725 435.757538,192.304092 
	C446.090973,189.169540 455.622009,186.363449 465.095978,183.376343 
	C472.076111,181.175537 477.746124,182.873322 482.646301,188.249268 
	C488.120056,194.254456 493.826630,200.047348 499.967957,206.495499 
	C494.026398,207.984070 488.035370,209.785294 481.920776,210.921753 
	C477.052521,211.826553 473.096741,213.485611 469.359222,217.076233 
	C460.606262,225.485260 451.544067,233.641006 442.042297,241.188248 
	C419.443634,259.138397 394.720215,273.197784 366.679565,281.019409 
	C349.899811,285.699890 332.862549,288.496277 314.935638,289.253082 
	C315.776001,289.633270 316.047668,289.823853 316.344971,289.881165 
	C381.010834,302.349609 445.676758,314.817719 510.347321,327.261688 
	C526.983398,330.462830 538.393860,318.966309 535.411804,302.307434 
	C529.169250,267.433868 523.063599,232.535751 516.764709,196.796097 
M1498.500000,143.938004 
	C1488.707520,143.938004 1478.915039,143.938004 1468.999878,143.938004 
	C1468.999878,128.225143 1468.999878,113.019142 1468.999878,97.350006 
	C1506.987549,97.350006 1544.584717,97.350006 1582.344727,97.350006 
	C1582.344727,81.835571 1582.344727,66.789658 1582.344727,51.581234 
	C1528.748291,51.581234 1475.502563,51.581234 1422.099243,51.581234 
	C1422.099243,128.595901 1422.099243,205.325150 1422.099243,282.188568 
	C1475.655151,282.188568 1528.909790,282.188568 1582.347412,282.188568 
	C1582.347412,266.853119 1582.347412,251.808136 1582.347412,236.132324 
	C1544.291626,236.132324 1506.578247,236.132324 1469.026733,236.132324 
	C1469.026733,220.444016 1469.026733,205.392349 1469.026733,189.804199 
	C1494.830078,189.804199 1520.217407,189.804199 1545.590820,189.804199 
	C1545.590820,174.320496 1545.590820,159.383789 1545.590820,143.937988 
	C1530.067383,143.937988 1514.783691,143.937988 1498.500000,143.938004 
M731.214478,190.058945 
	C734.623352,190.265884 733.760437,187.719223 733.767761,185.917938 
	C733.815674,174.085281 733.792542,162.252319 733.792603,150.419464 
	C733.792603,148.334824 733.792603,146.250198 733.792603,143.810028 
	C709.916321,143.810028 686.803650,143.810028 663.564453,143.810028 
	C663.564453,128.246643 663.564453,113.053505 663.564453,97.233292 
	C702.840637,97.233292 741.722900,97.233292 780.550171,97.233292 
	C780.550171,81.664604 780.550171,66.729301 780.550171,51.704216 
	C725.739075,51.704216 671.206970,51.704216 616.593140,51.704216 
	C616.593140,128.706635 616.593140,205.299332 616.593140,282.065857 
	C632.205811,282.065857 647.551819,282.065857 663.366699,282.065857 
	C663.366699,251.236618 663.366699,220.817581 663.366699,190.063141 
	C685.979492,190.063141 708.120972,190.063141 731.214478,190.058945 
M1318.183838,132.499969 
	C1318.183838,182.285828 1318.183838,232.071671 1318.183838,281.996765 
	C1334.087891,281.996765 1349.445801,281.996765 1364.845581,281.996765 
	C1364.845581,205.011810 1364.845581,128.416367 1364.845581,51.672741 
	C1349.218872,51.672741 1333.840454,51.672741 1318.183960,51.672741 
	C1318.183960,78.532074 1318.183960,105.016022 1318.183838,132.499969 
z"/>
<path fill="#0166FF" opacity="1.000000" stroke="none" 
	d="
M401.358398,129.710938 
	C408.270905,147.234070 406.178925,164.314957 401.099030,181.405655 
	C400.267365,184.203659 398.555786,184.329346 396.175079,184.136322 
	C374.295624,182.362366 352.967712,177.685944 332.735626,169.414337 
	C314.162445,161.820953 296.269165,152.564621 278.075653,144.042404 
	C276.344055,143.231277 274.607574,142.430618 272.873352,141.625107 
	C272.636993,142.009567 272.400604,142.394028 272.164246,142.778473 
	C280.750854,149.021255 289.136444,155.567688 297.980103,161.422180 
	C306.987518,167.385101 316.263428,173.003098 325.757690,178.152863 
	C335.242828,183.297653 345.000977,188.005341 354.903076,192.296219 
	C364.702698,196.542664 374.831635,200.029129 384.691833,204.252487 
	C339.897705,201.294342 297.945557,188.016113 257.559540,168.853531 
	C274.555176,182.230560 293.067291,192.906509 312.571350,201.616425 
	C332.113220,210.343246 352.182037,217.890015 372.361786,226.092972 
	C367.573425,229.898254 362.472107,234.263855 357.060211,238.202789 
	C320.395020,264.888763 279.330658,275.858521 234.257553,272.213562 
	C228.296371,271.731506 222.374191,270.627960 216.410706,270.386841 
	C214.222336,270.298309 211.583344,271.382416 209.799911,272.768127 
	C187.967316,289.731873 166.262894,306.860535 144.509232,323.925995 
	C135.201385,331.227875 126.212959,331.914734 117.980492,325.851257 
	C111.982933,321.433838 109.875504,315.212128 109.895508,307.957672 
	C109.959816,284.629791 109.919228,261.301605 109.919106,237.973557 
	C109.919098,236.182220 109.919113,234.390900 109.919113,232.065323 
	C107.689102,232.065323 105.907845,232.065353 104.126595,232.065338 
	C78.132469,232.065018 52.138325,232.084198 26.144224,232.056702 
	C11.692638,232.041428 3.799512,224.296310 3.758968,209.969696 
	C3.694365,187.141708 3.694436,164.313248 3.759181,141.485260 
	C3.799677,127.206886 11.767224,119.263588 26.113136,119.228287 
	C52.606991,119.163101 79.101280,119.251091 105.594902,119.148621 
	C108.530365,119.137276 111.591927,118.699272 114.377396,117.791451 
	C176.013931,97.702888 237.608444,77.485191 299.269196,57.471470 
	C301.997650,56.585865 305.500732,56.675102 308.264679,57.531368 
	C332.653900,65.087021 355.307556,76.042770 374.664001,93.013367 
	C386.194000,103.122169 395.594666,114.875282 401.358398,129.710938 
z"/>
<path fill="#0167FF" opacity="1.000000" stroke="none" 
	d="
M2063.524902,242.506744 
	C2042.402832,267.435211 2016.197876,282.690186 1983.949463,286.451385 
	C1949.378784,290.483429 1918.223877,281.699249 1891.289429,259.399384 
	C1867.513306,239.714340 1852.644775,214.658905 1848.606567,183.904312 
	C1844.055298,149.243622 1852.954834,118.124573 1875.893921,91.570808 
	C1902.447632,60.832878 1936.453613,46.505806 1976.874634,48.957691 
	C2014.792358,51.257729 2045.408691,68.254204 2067.699463,99.023430 
	C2089.377686,128.947266 2095.374512,162.297989 2086.137939,198.083649 
	C2081.941406,214.342728 2074.548828,229.208954 2063.524902,242.506744 
M1931.666992,104.082634 
	C1902.525024,121.530869 1888.247803,153.286423 1895.785645,183.890610 
	C1906.056885,225.592468 1948.195190,250.100494 1989.626709,238.469345 
	C2030.676880,226.945221 2053.993896,182.430649 2039.398193,143.449768 
	C2023.082275,99.874847 1974.587769,81.888077 1931.666992,104.082634 
z"/>
<path fill="#0167FF" opacity="1.000000" stroke="none" 
	d="
M912.160767,287.087402 
	C856.054810,282.847748 809.320435,240.274933 801.337585,184.927689 
	C795.374634,143.585190 808.597595,108.103622 839.636414,80.199028 
	C871.468628,51.581268 909.052185,42.589500 950.674622,52.055355 
	C1008.003113,65.093117 1047.757812,120.382751 1042.227661,178.569321 
	C1036.288696,241.056946 982.635803,288.647797 919.635010,287.307709 
	C917.302673,287.258118 914.971069,287.177521 912.160767,287.087402 
M921.500977,241.274536 
	C926.299683,240.838013 931.151550,240.716019 935.888733,239.915588 
	C976.710022,233.018234 1004.285400,190.701614 994.140076,150.683594 
	C984.609802,113.091606 949.666992,90.045769 909.913513,95.133621 
	C867.507141,100.560997 838.125854,144.164093 848.701416,185.424820 
	C856.608521,216.274445 885.785828,241.195587 921.500977,241.274536 
z"/>
<path fill="#0166FF" opacity="1.000000" stroke="none" 
	d="
M1241.223877,214.253372 
	C1240.709717,214.710968 1240.467529,214.942261 1240.201050,215.140991 
	C1230.605835,222.296951 1230.593018,222.301788 1235.247681,233.125870 
	C1241.555176,247.793655 1247.887451,262.450775 1254.198853,277.116882 
	C1254.842163,278.611633 1255.414307,280.137024 1256.313965,282.383331 
	C1248.987305,282.383331 1242.226807,282.383301 1235.466309,282.383301 
	C1227.634521,282.383301 1219.795044,282.179169 1211.974121,282.470276 
	C1208.120483,282.613708 1206.127686,281.576263 1204.564209,277.772034 
	C1199.254028,264.852570 1193.505005,252.110413 1187.716675,239.394745 
	C1187.057129,237.945786 1185.102051,236.129028 1183.725220,236.110046 
	C1167.241089,235.882767 1150.752686,235.963242 1133.695557,235.963242 
	C1133.695557,251.428207 1133.695557,266.495941 1133.695557,281.971497 
	C1117.910645,281.971497 1102.690308,281.971497 1087.111328,281.971497 
	C1087.111328,205.332657 1087.111328,128.613998 1087.111328,51.541683 
	C1088.623901,51.458942 1090.081177,51.310333 1091.538574,51.309666 
	C1120.532959,51.296406 1149.529419,51.087852 1178.521362,51.355358 
	C1213.321289,51.676460 1241.399048,65.645073 1259.997314,95.340416 
	C1279.437988,126.381218 1279.545532,158.720551 1261.197388,190.366150 
	C1256.124023,199.116394 1248.135620,206.176376 1241.223877,214.253372 
M1133.413574,165.499878 
	C1133.413574,173.607758 1133.413574,181.715637 1133.413574,190.117737 
	C1149.669189,190.117737 1165.297607,190.138626 1180.926147,190.113098 
	C1207.949951,190.068954 1230.430298,166.322739 1227.116943,137.907959 
	C1224.862671,118.575104 1206.405151,99.107155 1186.942017,98.190895 
	C1169.838135,97.385712 1152.685303,97.616364 1135.553711,97.423126 
	C1134.953003,97.416344 1134.348022,97.769684 1133.413818,98.057106 
	C1133.413818,120.275627 1133.413818,142.387741 1133.413574,165.499878 
z"/>
<path fill="#0166FF" opacity="1.000000" stroke="none" 
	d="
M1707.999634,236.030914 
	C1697.022705,236.032288 1686.545776,236.032288 1675.515381,236.032288 
	C1675.515381,251.500763 1675.515381,266.573120 1675.515381,282.010742 
	C1659.754272,282.010742 1644.546387,282.010742 1629.004883,282.010742 
	C1629.004883,205.260406 1629.004883,128.567535 1629.004883,51.299469 
	C1630.774292,51.299469 1632.395508,51.299465 1634.016846,51.299469 
	C1662.502197,51.299603 1690.987549,51.278641 1719.472900,51.305630 
	C1749.613770,51.334187 1775.383911,61.751568 1794.617920,85.256218 
	C1818.053711,113.895645 1822.536377,145.970352 1808.521118,180.250076 
	C1801.872437,196.512222 1790.814331,209.523102 1776.178101,219.277420 
	C1772.953247,221.426590 1772.787109,223.229324 1774.242554,226.526657 
	C1781.695190,243.409561 1788.910645,260.397186 1796.201538,277.351410 
	C1796.836304,278.827362 1797.416626,280.326660 1798.248657,282.371826 
	C1781.993530,282.371826 1766.357544,282.447693 1750.725830,282.224976 
	C1749.501465,282.207550 1747.805664,280.332672 1747.176270,278.938568 
	C1741.360474,266.058380 1735.587524,253.153992 1730.146118,240.113113 
	C1728.739868,236.743408 1726.965332,235.688950 1723.486694,235.904694 
	C1718.507568,236.213501 1713.496826,236.012711 1707.999634,236.030914 
M1675.314575,111.514481 
	C1675.314575,137.598145 1675.314575,163.681793 1675.314575,190.086594 
	C1691.705322,190.086594 1707.492554,190.136887 1723.279297,190.074844 
	C1747.133057,189.981094 1767.719727,170.651535 1769.345581,146.417831 
	C1770.839722,124.148041 1752.730835,100.136185 1730.383789,98.401779 
	C1712.519287,97.015266 1694.489014,97.763435 1676.531982,97.591324 
	C1676.266968,97.588783 1675.998535,97.937767 1675.314697,98.411751 
	C1675.314697,102.255974 1675.314697,106.388710 1675.314575,111.514481 
z"/>
<path fill="#0167FF" opacity="1.000000" stroke="none" 
	d="
M516.833252,197.221909 
	C523.063599,232.535751 529.169250,267.433868 535.411804,302.307434 
	C538.393860,318.966309 526.983398,330.462830 510.347321,327.261688 
	C445.676758,314.817719 381.010834,302.349609 316.344971,289.881165 
	C316.047668,289.823853 315.776001,289.633270 314.935638,289.253082 
	C332.862549,288.496277 349.899811,285.699890 366.679565,281.019409 
	C394.720215,273.197784 419.443634,259.138397 442.042297,241.188248 
	C451.544067,233.641006 460.606262,225.485260 469.359222,217.076233 
	C473.096741,213.485611 477.052521,211.826553 481.920776,210.921753 
	C488.035370,209.785294 494.026398,207.984070 499.967957,206.495499 
	C493.826630,200.047348 488.120056,194.254456 482.646301,188.249268 
	C477.746124,182.873322 472.076111,181.175537 465.095978,183.376343 
	C455.622009,186.363449 446.090973,189.169540 435.757538,192.304092 
	C437.764099,182.749725 441.672058,174.950546 447.867554,168.674820 
	C452.606171,163.874832 458.150024,159.757248 463.774811,155.992081 
	C466.585419,154.110718 467.646301,152.507767 466.993591,149.250473 
	C464.652893,137.569504 459.215363,127.307907 452.260590,117.891716 
	C425.841217,82.122108 390.403687,60.591438 346.939087,52.062187 
	C340.464844,50.791714 333.858856,50.192398 326.078308,49.110840 
	C328.288391,48.125366 329.428223,47.491024 330.645294,47.092686 
	C372.502441,33.393223 414.361084,19.698387 456.233185,6.044680 
	C472.373749,0.781535 483.139893,7.613181 486.078796,24.362280 
	C495.421173,77.605759 504.939484,130.818375 514.398071,184.041458 
	C515.154663,188.298737 515.974365,192.544815 516.833252,197.221909 
z"/>
<path fill="#0267FF" opacity="1.000000" stroke="none" 
	d="
M1499.000000,143.937988 
	C1514.783691,143.937988 1530.067383,143.937988 1545.590820,143.937988 
	C1545.590820,159.383789 1545.590820,174.320496 1545.590820,189.804199 
	C1520.217407,189.804199 1494.830078,189.804199 1469.026733,189.804199 
	C1469.026733,205.392349 1469.026733,220.444016 1469.026733,236.132324 
	C1506.578247,236.132324 1544.291626,236.132324 1582.347412,236.132324 
	C1582.347412,251.808136 1582.347412,266.853119 1582.347412,282.188568 
	C1528.909790,282.188568 1475.655151,282.188568 1422.099243,282.188568 
	C1422.099243,205.325150 1422.099243,128.595901 1422.099243,51.581234 
	C1475.502563,51.581234 1528.748291,51.581234 1582.344727,51.581234 
	C1582.344727,66.789658 1582.344727,81.835571 1582.344727,97.350006 
	C1544.584717,97.350006 1506.987549,97.350006 1468.999878,97.350006 
	C1468.999878,113.019142 1468.999878,128.225143 1468.999878,143.938004 
	C1478.915039,143.938004 1488.707520,143.938004 1499.000000,143.937988 
z"/>
<path fill="#0367FF" opacity="1.000000" stroke="none" 
	d="
M730.738464,190.061035 
	C708.120972,190.063141 685.979492,190.063141 663.366699,190.063141 
	C663.366699,220.817581 663.366699,251.236618 663.366699,282.065857 
	C647.551819,282.065857 632.205811,282.065857 616.593140,282.065857 
	C616.593140,205.299332 616.593140,128.706635 616.593140,51.704216 
	C671.206970,51.704216 725.739075,51.704216 780.550171,51.704216 
	C780.550171,66.729301 780.550171,81.664604 780.550171,97.233292 
	C741.722900,97.233292 702.840637,97.233292 663.564453,97.233292 
	C663.564453,113.053505 663.564453,128.246643 663.564453,143.810028 
	C686.803650,143.810028 709.916321,143.810028 733.792603,143.810028 
	C733.792603,146.250198 733.792603,148.334824 733.792603,150.419464 
	C733.792542,162.252319 733.815674,174.085281 733.767761,185.917938 
	C733.760437,187.719223 734.623352,190.265884 730.738464,190.061035 
z"/>
<path fill="#0267FF" opacity="1.000000" stroke="none" 
	d="
M1318.183838,131.999969 
	C1318.183960,105.016022 1318.183960,78.532074 1318.183960,51.672741 
	C1333.840454,51.672741 1349.218872,51.672741 1364.845581,51.672741 
	C1364.845581,128.416367 1364.845581,205.011810 1364.845581,281.996765 
	C1349.445801,281.996765 1334.087891,281.996765 1318.183838,281.996765 
	C1318.183838,232.071671 1318.183838,182.285828 1318.183838,131.999969 
z"/>
<path fill="#FEFEFF" opacity="1.000000" stroke="none" 
	d="
M1931.992676,103.908157 
	C1974.587769,81.888077 2023.082275,99.874847 2039.398193,143.449768 
	C2053.993896,182.430649 2030.676880,226.945221 1989.626709,238.469345 
	C1948.195190,250.100494 1906.056885,225.592468 1895.785645,183.890610 
	C1888.247803,153.286423 1902.525024,121.530869 1931.992676,103.908157 
z"/>
<path fill="#FEFEFF" opacity="1.000000" stroke="none" 
	d="
M921.011047,241.262802 
	C885.785828,241.195587 856.608521,216.274445 848.701416,185.424820 
	C838.125854,144.164093 867.507141,100.560997 909.913513,95.133621 
	C949.666992,90.045769 984.609802,113.091606 994.140076,150.683594 
	C1004.285400,190.701614 976.710022,233.018234 935.888733,239.915588 
	C931.151550,240.716019 926.299683,240.838013 921.011047,241.262802 
z"/>
<path fill="#FCFDFF" opacity="1.000000" stroke="none" 
	d="
M1133.413696,164.999863 
	C1133.413818,142.387741 1133.413818,120.275627 1133.413818,98.057106 
	C1134.348022,97.769684 1134.953003,97.416344 1135.553711,97.423126 
	C1152.685303,97.616364 1169.838135,97.385712 1186.942017,98.190895 
	C1206.405151,99.107155 1224.862671,118.575104 1227.116943,137.907959 
	C1230.430298,166.322739 1207.949951,190.068954 1180.926147,190.113098 
	C1165.297607,190.138626 1149.669189,190.117737 1133.413574,190.117737 
	C1133.413574,181.715637 1133.413574,173.607758 1133.413696,164.999863 
z"/>
<path fill="#FDFDFF" opacity="1.000000" stroke="none" 
	d="
M1675.314697,111.017960 
	C1675.314697,106.388710 1675.314697,102.255974 1675.314697,98.411751 
	C1675.998535,97.937767 1676.266968,97.588783 1676.531982,97.591324 
	C1694.489014,97.763435 1712.519287,97.015266 1730.383789,98.401779 
	C1752.730835,100.136185 1770.839722,124.148041 1769.345581,146.417831 
	C1767.719727,170.651535 1747.133057,189.981094 1723.279297,190.074844 
	C1707.492554,190.136887 1691.705322,190.086594 1675.314575,190.086594 
	C1675.314575,163.681793 1675.314575,137.598145 1675.314697,111.017960 
z"/>
</svg>